<?xml version="1.0" encoding="utf-8"?>
<!-- Generator: Adobe Illustrator 21.0.2, SVG Export Plug-In . SVG Version: 6.00 Build 0)  -->
<svg version="1.1" id="Layer_1" xmlns="http://www.w3.org/2000/svg" xmlns:xlink="http://www.w3.org/1999/xlink" x="0px" y="0px"
	 viewBox="0 0 206.6 206.6" style="enable-background:new 0 0 206.6 206.6;" xml:space="preserve">
<style type="text/css">
	.st0{fill:#0CA2D0;}
	.st1{fill:#FFFFFF;}
	.st2{fill:#FFFFFF;stroke:#0CA2D0;stroke-miterlimit:10;}
	.st3{fill:none;stroke:#FFFFFF;stroke-width:4;stroke-miterlimit:10;}
	.st4{clip-path:url(#SVGID_2_);}
	.st5{clip-path:url(#SVGID_4_);}
</style>
<circle class="st0" cx="103.3" cy="103.3" r="103.3"/>
<g>
	<path class="st1" d="M105,108.7L105,108.7c-4.6,0.9-9.1-2.2-9.9-6.8l-3.5-18.7c-0.9-4.6,2.2-9.1,6.8-9.9l0,0
		c4.6-0.9,9.1,2.2,9.9,6.8l3.5,18.7C112.6,103.4,109.6,107.8,105,108.7z"/>
	<g>
		<path class="st1" d="M75.6,58.3c-9.5,3.8-46.1,41.3-46.1,41.3c-11.1,16.4,2.3,60.6,34.8,54.5c18.7-3.5,37-35.7,37.2-50.8
			C101.6,82.9,85.8,54.2,75.6,58.3z M74.7,123.6c-12.5,2.4-24.5-5.8-26.9-18.3s5.8-24.5,18.3-26.9c12.5-2.4,24.5,5.8,26.9,18.3
			S87.2,121.2,74.7,123.6z"/>
		<path class="st2" d="M74.6,62c-8.8,3.6-43.1,38.8-43.1,38.8c-10.4,15.4,2.3,57,32.6,51.3c17.4-3.3,34.6-33.5,34.7-47.8
			C99,85.1,84.1,58.1,74.6,62z M73.9,123.4c-11.7,2.2-22.9-5.5-25.2-17.3c-2.2-11.7,5.4-23.1,17.1-25.3S88.8,86.4,91,98.1
			S85.6,121.2,73.9,123.4z"/>
	</g>
	<g>
		<path class="st1" d="M107.7,105.5c6.5,13.7,36.6,35.2,55.1,30.5c32-8,25.7-53.9,8.7-64c0,0-49-18.7-59.2-18.2
			C101.3,54.4,98.9,87.1,107.7,105.5z M112.5,96c-3.1-12.3,4.4-24.8,16.7-27.9c12.3-3.1,24.8,4.4,27.9,16.7s-4.4,24.8-16.7,27.9
			S115.6,108.4,112.5,96z"/>
		<path class="st2" d="M110.5,105.3c6.1,12.9,34.3,33.1,51.5,28.8c29.9-7.5,23.9-50.6,8-60.2c0,0-45.8-17.6-55.4-17.2
			C104.4,57.2,102.3,88,110.5,105.3z M115,96.5c-2.9-11.6,4.1-23.3,15.6-26.2s23.2,4.2,26.1,15.8c2.9,11.6-4.1,23.3-15.6,26.2
			C129.6,115.1,117.9,108,115,96.5z"/>
	</g>
</g>
</svg>
